<svg width="80" height="34" viewBox="0 0 80 34" fill="none" xmlns="http://www.w3.org/2000/svg">
<path d="M63 0H17C7.61116 0 0 7.61116 0 17C0 26.3888 7.61116 34 17 34H63C72.3888 34 80 26.3888 80 17C80 7.61116 72.3888 0 63 0Z" fill="#FF6838"/>
<path fill-rule="evenodd" clip-rule="evenodd" d="M41.7929 18.2639C40.361 19.6958 38.0394 19.6958 36.6075 18.2639C35.1755 16.8319 35.1755 14.5103 36.6075 13.0784C38.0394 11.6465 40.361 11.6465 41.7929 13.0784C43.2248 14.5103 43.2248 16.8319 41.7929 18.2639ZM42.2333 19.6468C40.2731 21.1462 37.4575 20.9995 35.6647 19.2067C33.712 17.2541 33.712 14.0882 35.6647 12.1356C37.6173 10.183 40.7831 10.183 42.7357 12.1356C44.5285 13.9284 44.6753 16.7438 43.1761 18.704L46.7428 22.2707L45.8 23.2135L42.2333 19.6468Z" fill="white"/>
</svg>
